<?xml version="1.0" standalone="no"?>
<!DOCTYPE svg PUBLIC "-//W3C//DTD SVG 20010904//EN"
 "http://www.w3.org/TR/2001/REC-SVG-20010904/DTD/svg10.dtd">
<svg version="1.0" xmlns="http://www.w3.org/2000/svg"
 width="700.000000pt" height="700.000000pt" viewBox="0 0 700.000000 700.000000"
 preserveAspectRatio="xMidYMid meet">
<metadata>
Created by potrace 1.11, written by Peter Selinger 2001-2013
</metadata>
<g transform="translate(0.000000,700.000000) scale(0.100000,-0.100000)"
fill="#000000" stroke="none">
<path d="M3298 6555 c-2 -1 -36 -5 -75 -9 -212 -18 -504 -80 -708 -149 -148
-51 -187 -67 -380 -158 -142 -66 -357 -203 -520 -330 -118 -92 -129 -102 -304
-267 -73 -70 -141 -134 -151 -142 -9 -8 -77 -72 -151 -141 -249 -235 -274
-258 -276 -255 -1 1 -3 175 -3 387 -1 211 -5 405 -10 432 -28 147 -169 297
-314 334 -47 12 -185 11 -229 -2 -57 -17 -126 -52 -154 -78 l-23 -20 0 -1204
0 -1203 47 -30 c26 -17 72 -40 103 -51 55 -22 61 -22 980 -23 509 -1 950 2
980 7 129 18 265 118 324 240 32 65 36 83 41 174 11 218 -146 413 -360 447
-22 4 -193 7 -380 8 l-339 0 59 55 c33 31 123 115 199 187 77 72 158 148 180
169 267 251 316 292 466 392 240 160 534 277 810 324 112 19 123 20 210 28
409 34 824 -50 1188 -239 53 -28 108 -58 122 -67 14 -9 33 -20 42 -26 139 -84
352 -266 473 -406 299 -343 494 -796 532 -1237 13 -152 6 -443 -12 -512 -2 -8
-6 -37 -10 -64 -3 -27 -8 -53 -10 -56 -2 -4 -7 -22 -10 -41 -11 -64 -46 -184
-87 -294 -261 -710 -888 -1241 -1636 -1385 -149 -29 -222 -35 -417 -35 -190 0
-265 7 -434 40 -312 61 -657 222 -925 432 -156 123 -392 385 -481 534 -102
172 -135 237 -197 394 -52 130 -78 173 -139 230 -132 123 -317 150 -484 71
-155 -75 -251 -226 -247 -391 3 -81 10 -109 57 -233 119 -314 306 -627 529
-887 90 -105 302 -313 377 -370 294 -225 466 -330 714 -440 1066 -471 2319
-289 3210 464 88 75 246 228 315 306 104 117 330 426 330 451 0 4 6 15 14 23
19 21 125 227 165 321 18 41 39 89 46 105 55 123 145 445 170 605 3 19 7 46
10 60 38 213 47 595 20 786 -2 16 -7 59 -11 95 -3 35 -8 67 -10 70 -2 4 -6 24
-10 45 -11 74 -14 90 -43 211 -64 259 -202 603 -314 780 -15 24 -27 45 -27 48
0 23 -237 349 -331 455 -350 396 -796 694 -1309 875 -41 15 -83 28 -93 30 -9
2 -21 6 -25 9 -5 3 -19 7 -33 10 -13 3 -69 16 -124 30 -55 14 -129 30 -165 35
-36 6 -74 13 -85 15 -12 2 -45 7 -75 11 -30 3 -68 9 -85 11 -33 5 -502 14
-507 9z"/>
</g>
</svg>
